<?xml version="1.0" encoding="UTF-8"?>
<svg width="14px" height="14px" viewBox="0 0 14 14" version="1.1" xmlns="http://www.w3.org/2000/svg" xmlns:xlink="http://www.w3.org/1999/xlink">
    <!-- Generator: Sketch 46.2 (44496) - http://www.bohemiancoding.com/sketch -->
    <title>icon-error</title>
    <desc>Created with Sketch.</desc>
    <defs>
        <path d="M8,81.003676 C7.82080448,81.003676 7.64160896,80.9350588 7.50511237,80.7985247 L1.20526987,74.4969493 C0.931576711,74.2231808 0.931576711,73.7806702 1.20526987,73.5069018 L7.50511237,67.2053263 C7.77880553,66.9315579 8.22119447,66.9315579 8.49488763,67.2053263 L14.7947301,73.5069018 C15.0684233,73.77997 15.0684233,74.2231808 14.7947301,74.4969493 L8.49488763,80.7985247 C8.35839104,80.935759 8.17919552,81.003676 8,81.003676 Z M2.68993275,74.0019255 L8,68.6910978 L13.3100672,74.0019255 L8,79.3134534 L2.68993275,74.0019255 Z M7.3000175,71.2012253 L7.3000175,75.4022756 L8.6999825,75.4022756 L8.6999825,71.2012253 L7.3000175,71.2012253 Z M8,77.6778445 C8.48323708,77.6778445 8.87497813,77.2859957 8.87497813,76.8026257 C8.87497813,76.3192557 8.48323708,75.9274069 8,75.9274069 C7.51676292,75.9274069 7.12502187,76.3192557 7.12502187,76.8026257 C7.12502187,77.2859957 7.51676292,77.6778445 8,77.6778445 Z" id="path-1"></path>
    </defs>
    <g id="Page-1" stroke="none" stroke-width="1" fill="none" fill-rule="evenodd">
        <g id="landing" transform="translate(-17.000000, -739.000000)">
            <g id="fieldgroup" transform="translate(16.000000, 672.000000)">
                <mask id="mask-2" fill="white">
                    <use xlink:href="#path-1"></use>
                </mask>
                <use id="icon-error" fill="#FF4000" xlink:href="#path-1"></use>
            </g>
        </g>
    </g>
</svg>